<?xml version="1.0" standalone="no"?>
<!DOCTYPE svg PUBLIC "-//W3C//DTD SVG 20010904//EN"
 "http://www.w3.org/TR/2001/REC-SVG-20010904/DTD/svg10.dtd">
<svg version="1.0" xmlns="http://www.w3.org/2000/svg"
 width="1024.000000pt" height="1024.000000pt" viewBox="0 0 1024.000000 1024.000000"
 preserveAspectRatio="xMidYMid meet">
<metadata>
Created by potrace 1.11, written by Peter Selinger 2001-2013
</metadata>
<g transform="translate(0.000000,1024.000000) scale(0.100000,-0.100000)"
fill="#000000" stroke="none">
<path d="M2230 10230 c0 -8 369 -3 379 6 2 2 -82 4 -187 4 -115 0 -192 -4
-192 -10z"/>
<path d="M7631 10236 c9 -8 379 -13 379 -5 0 5 -86 9 -192 9 -105 0 -189 -2
-187 -4z"/>
<path d="M2988 6103 c-1619 -1576 -2944 -2869 -2945 -2872 -2 -5 422 -189 499
-216 12 -5 224 196 798 755 430 419 787 759 793 757 7 -3 742 -314 1635 -693
l1622 -689 0 -1096 0 -1095 255 -108 c141 -60 257 -107 259 -105 3 2 8 905 12
2007 4 1101 10 2001 14 2000 3 -2 808 -822 1789 -1823 l1783 -1820 202 -3 202
-2 42 65 c24 35 52 90 62 121 24 68 23 62 7 60 -12 -1 -3498 3553 -3505 3573
-2 7 848 846 3408 3369 l215 211 -356 1 -355 0 -1743 -1715 c-958 -943 -1745
-1715 -1748 -1715 -4 0 -3 878 1 1950 3 1073 5 1950 2 1950 -2 0 -1329 -1290
-2948 -2867z m2423 2 c-6 -726 -14 -1563 -17 -1861 l-7 -540 -1411 599 c-776
329 -1419 602 -1429 606 -15 6 259 280 1425 1426 l1443 1418 3 -164 c2 -90 -1
-758 -7 -1484z"/>
<path d="M0 7813 c0 -108 2 -194 4 -192 9 10 15 389 6 389 -6 0 -10 -76 -10
-197z"/>
<path d="M10227 7818 c3 -106 7 -195 9 -197 2 -2 4 84 4 192 0 109 -4 197 -9
197 -5 0 -6 -86 -4 -192z"/>
<path d="M4 2475 c0 -99 2 -138 3 -87 2 51 2 132 0 180 -1 48 -3 6 -3 -93z"/>
<path d="M10227 2463 c-4 -104 -9 -219 -11 -258 -4 -67 -4 -67 4 -15 10 67 25
460 18 460 -3 0 -8 -84 -11 -187z"/>
<path d="M10202 2090 c0 -14 2 -19 5 -12 2 6 2 18 0 25 -3 6 -5 1 -5 -13z"/>
<path d="M10181 1934 c0 -11 3 -14 6 -6 3 7 2 16 -1 19 -3 4 -6 -2 -5 -13z"/>
<path d="M10171 1874 c0 -11 3 -14 6 -6 3 7 2 16 -1 19 -3 4 -6 -2 -5 -13z"/>
<path d="M8000 23 c-19 -2 -125 -7 -235 -12 l-200 -8 228 -1 c191 -2 231 0
243 13 9 8 12 14 7 13 -4 -1 -24 -3 -43 -5z"/>
<path d="M2383 3 c53 -2 141 -2 195 0 53 1 9 3 -98 3 -107 0 -151 -2 -97 -3z"/>
</g>
</svg>
